<?xml version="1.0" encoding="UTF-8"?>
<svg width="50px" height="50px" viewBox="0 0 50 50" version="1.1" xmlns="http://www.w3.org/2000/svg" xmlns:xlink="http://www.w3.org/1999/xlink">
    <!-- Generator: Sketch 54.1 (76490) - https://sketchapp.com -->
    <title>Group 20</title>
    <desc>Created with Sketch.</desc>
    <g id="Page-1" stroke="none" stroke-width="1" fill="none" fill-rule="evenodd">
        <g id="apply" transform="translate(-762.000000, -2793.000000)">
            <g id="Group-15" transform="translate(490.000000, 2640.000000)">
                <g id="Group-8-Copy-2" transform="translate(272.000000, 153.000000)">
                    <g id="Group-20">
                        <circle id="Oval" fill="#007BBF" cx="25" cy="25" r="25"></circle>
                        <path d="M21.5055845,21.8493194 L21.5055845,31.8035724 L18.1908484,31.8035724 L18.1908484,21.8493194 L21.5055845,21.8493194 Z M21.7165223,18.7756551 C21.7265669,19.7298973 21.0033518,20.493291 19.8482165,20.493291 L19.8281272,20.493291 C18.7131705,20.493291 18,19.7298973 18,18.7756551 C18,17.8013236 18.7433045,17.0580191 19.8683058,17.0580191 C21.0033518,17.0580191 21.7064776,17.8013236 21.7165223,18.7756551 Z M26.6384032,23.264161 C27.0744615,22.5824947 27.8610875,21.6182924 29.6216656,21.6182924 C31.8013557,21.6182924 33.4285898,23.0446334 33.4285898,26.0982084 L33.4285898,31.8035724 L30.1238984,31.8035724 L30.1238984,26.4799053 C30.1238984,25.1439662 29.6417549,24.2299026 28.446441,24.2299026 C27.5323774,24.2299026 26.9899661,24.8426266 26.7488944,25.4352612 C26.6685371,25.6562436 26.6384032,25.9475386 26.6384032,26.2488783 L26.6384032,31.8035724 L23.3337117,31.8035724 C23.3738903,22.7834723 23.3337117,21.8493194 23.3337117,21.8493194 L26.6384032,21.8493194 L26.6384032,23.264161 L26.6384032,23.264161 Z" id="" fill="#FFFFFF" fill-rule="nonzero"></path>
                    </g>
                </g>
            </g>
        </g>
    </g>
</svg>