<?xml version="1.0" encoding="UTF-8"?>
<svg width="374px" height="438px" viewBox="0 0 374 438" version="1.1" xmlns="http://www.w3.org/2000/svg" xmlns:xlink="http://www.w3.org/1999/xlink">
    <!-- Generator: Sketch 54.1 (76490) - https://sketchapp.com -->
    <title>star student</title>
    <desc>Created with Sketch.</desc>
    <defs>
        <path d="M198,14.4337567 L297.822395,72.0662433 C313.292449,80.997883 322.822395,97.504234 322.822395,115.367513 L322.822395,230.632487 C322.822395,248.495766 313.292449,265.002117 297.822395,273.933757 L198,331.566243 C182.529946,340.497883 163.470054,340.497883 148,331.566243 L48.1776051,273.933757 C32.7075513,265.002117 23.1776051,248.495766 23.1776051,230.632487 L23.1776051,115.367513 C23.1776051,97.504234 32.7075513,80.997883 48.1776051,72.0662433 L148,14.4337567 C163.470054,5.50211698 182.529946,5.50211698 198,14.4337567 Z" id="path-1"></path>
        <path d="M59.1732944,93.4732215 L34.3185678,106.540125 C31.8743448,107.825129 28.851209,106.885396 27.566205,104.441173 C27.0545097,103.467871 26.8779363,102.35303 27.0638205,101.269242 L31.8106509,73.5930974 C32.0888406,71.971127 31.5510982,70.316126 30.3726677,69.1674403 L10.2647715,49.5670857 C8.28735361,47.6395796 8.24689208,44.4740133 10.1743981,42.4965954 C10.9419412,41.7091772 11.9476532,41.1967413 13.0358384,41.0386188 L40.8242675,37.0007237 C42.4528183,36.7640814 43.8606462,35.7412345 44.5889563,34.2655171 L57.0163196,9.08492875 C58.2384311,6.60866045 61.2365603,5.59196546 63.7128286,6.81407693 C64.6988916,7.30072812 65.4970292,8.09886573 65.9836804,9.08492875 L78.4110437,34.2655171 C79.1393538,35.7412345 80.5471817,36.7640814 82.1757325,37.0007237 L109.964162,41.0386188 C112.696886,41.4357069 114.590293,43.9729211 114.193205,46.7056454 C114.035083,47.7938306 113.522647,48.7995426 112.735228,49.5670857 L92.6273323,69.1674403 C91.4489018,70.316126 90.9111594,71.971127 91.1893491,73.5930974 L95.9361795,101.269242 C96.4029845,103.990924 94.5750454,106.575704 91.8533632,107.042509 C90.769575,107.228393 89.6547346,107.05182 88.6814322,106.540125 L63.8267056,93.4732215 C62.3700855,92.707431 60.6299145,92.707431 59.1732944,93.4732215 Z" id="path-3"></path>
        <path d="M1.42108547e-14,159.815222 L0,193.251653 C2.85383368e-15,216.554973 18.8910737,235.446047 42.1943941,235.446047 L42.1943941,235.446047 C65.4977146,235.446047 84.3887883,216.554973 84.3887883,193.251653 L84.3887883,95.0790217 C84.3887883,88.4079622 78.9808261,83 72.3097666,83 L72.3097666,83 C65.604347,83 60.1354844,88.3727577 60.0166141,95.0771236 L59.97611,97.3615857 L36.7925095,109.629314 L36.9461051,144.274888 L13.0155806,144.274888 L13.0155806,150.436121 L1.42108547e-14,159.815222 Z" id="path-5"></path>
        <linearGradient x1="50%" y1="0%" x2="50%" y2="100%" id="linearGradient-7">
            <stop stop-color="#EE8E03" offset="0%"></stop>
            <stop stop-color="#F99401" offset="100%"></stop>
        </linearGradient>
        <linearGradient x1="50%" y1="0%" x2="50%" y2="100%" id="linearGradient-8">
            <stop stop-color="#EE8E03" offset="0%"></stop>
            <stop stop-color="#F99401" offset="100%"></stop>
        </linearGradient>
        <linearGradient x1="50%" y1="0%" x2="50%" y2="100%" id="linearGradient-9">
            <stop stop-color="#EE8E03" offset="0%"></stop>
            <stop stop-color="#F99401" offset="100%"></stop>
        </linearGradient>
    </defs>
    <g id="Page-1" stroke="none" stroke-width="1" fill="none" fill-rule="evenodd">
        <g id="icon" transform="translate(-1221.000000, -2016.000000)">
            <g id="star-student" transform="translate(1193.000000, 2009.000000)">
                <g id="Group-22-Copy">
                    <g id="Group-10-Copy-3">
                        <path d="M240,36.4337567 L376.195462,115.066243 C391.665516,123.997883 401.195462,140.504234 401.195462,158.367513 L401.195462,315.632487 C401.195462,333.495766 391.665516,350.002117 376.195462,358.933757 L240,437.566243 C224.529946,446.497883 205.470054,446.497883 190,437.566243 L53.8045382,358.933757 C38.3344843,350.002117 28.8045382,333.495766 28.8045382,315.632487 L28.8045382,158.367513 C28.8045382,140.504234 38.3344843,123.997883 53.8045382,115.066243 L190,36.4337567 C205.470054,27.502117 224.529946,27.502117 240,36.4337567 Z" id="Polygon-Copy-2" fill="#F99401"></path>
                        <g id="Polygon-2" fill="#FFCF61">
                            <path d="M240,14.4337567 L376.195462,93.0662433 C391.665516,101.997883 401.195462,118.504234 401.195462,136.367513 L401.195462,293.632487 C401.195462,311.495766 391.665516,328.002117 376.195462,336.933757 L240,415.566243 C224.529946,424.497883 205.470054,424.497883 190,415.566243 L53.8045382,336.933757 C38.3344843,328.002117 28.8045382,311.495766 28.8045382,293.632487 L28.8045382,136.367513 C28.8045382,118.504234 38.3344843,101.997883 53.8045382,93.0662433 L190,14.4337567 C205.470054,5.50211698 224.529946,5.50211698 240,14.4337567 Z" id="Polygon"></path>
                        </g>
                        <g id="Group-11" transform="translate(42.000000, 42.000000)">
                            <mask id="mask-2" fill="white">
                                <use xlink:href="#path-1"></use>
                            </mask>
                            <use id="Polygon-Copy" fill="#EE8E03" xlink:href="#path-1"></use>
                            <path d="M198,36.4337567 L297.822395,94.0662433 C313.292449,102.997883 322.822395,119.504234 322.822395,137.367513 L322.822395,252.632487 C322.822395,270.495766 313.292449,287.002117 297.822395,295.933757 L198,353.566243 C182.529946,362.497883 163.470054,362.497883 148,353.566243 L48.1776051,295.933757 C32.7075513,287.002117 23.1776051,270.495766 23.1776051,252.632487 L23.1776051,137.367513 C23.1776051,119.504234 32.7075513,102.997883 48.1776051,94.0662433 L148,36.4337567 C163.470054,27.502117 182.529946,27.502117 198,36.4337567 Z" id="Polygon-Copy-3" fill="#F99401" mask="url(#mask-2)"></path>
                        </g>
                    </g>
                </g>
                <g id="Group-24" transform="translate(157.000000, 88.000000)">
                    <g id="Group-23" transform="translate(12.321517, 0.111866)">
                        <g id="Star-2" transform="translate(0.730745, 0.311004)">
                            <path d="M59.1732944,97.4732215 L34.3185678,110.540125 C31.8743448,111.825129 28.851209,110.885396 27.566205,108.441173 C27.0545097,107.467871 26.8779363,106.35303 27.0638205,105.269242 L31.8106509,77.5930974 C32.0888406,75.971127 31.5510982,74.316126 30.3726677,73.1674403 L10.2647715,53.5670857 C8.28735361,51.6395796 8.24689208,48.4740133 10.1743981,46.4965954 C10.9419412,45.7091772 11.9476532,45.1967413 13.0358384,45.0386188 L40.8242675,41.0007237 C42.4528183,40.7640814 43.8606462,39.7412345 44.5889563,38.2655171 L57.0163196,13.0849288 C58.2384311,10.6086605 61.2365603,9.59196546 63.7128286,10.8140769 C64.6988916,11.3007281 65.4970292,12.0988657 65.9836804,13.0849288 L78.4110437,38.2655171 C79.1393538,39.7412345 80.5471817,40.7640814 82.1757325,41.0007237 L109.964162,45.0386188 C112.696886,45.4357069 114.590293,47.9729211 114.193205,50.7056454 C114.035083,51.7938306 113.522647,52.7995426 112.735228,53.5670857 L92.6273323,73.1674403 C91.4489018,74.316126 90.9111594,75.971127 91.1893491,77.5930974 L95.9361795,105.269242 C96.4029845,107.990924 94.5750454,110.575704 91.8533632,111.042509 C90.769575,111.228393 89.6547346,111.05182 88.6814322,110.540125 L63.8267056,97.4732215 C62.3700855,96.707431 60.6299145,96.707431 59.1732944,97.4732215 Z" id="Star-Copy-5" fill="#EDB940"></path>
                            <g id="Star-3">
                                <mask id="mask-4" fill="white">
                                    <use xlink:href="#path-3"></use>
                                </mask>
                                <use id="Star" fill="#FFCF61" xlink:href="#path-3"></use>
                                <path d="M78.0242825,-4 L112.975718,-4 C118.54771,-4 120.568249,-3.41983993 122.605286,-2.3304206 C124.642323,-1.24100127 126.241001,0.357677316 127.330421,2.39471435 C128.41984,4.43175139 129,6.45229038 129,12.0242825 L129,100.975718 C129,106.54771 128.41984,108.568249 127.330421,110.605286 C126.241001,112.642323 124.642323,114.241001 122.605286,115.330421 C120.568249,116.41984 118.54771,117 112.975718,117 L78.0242825,117 C72.4522904,117 70.4317514,116.41984 68.3947144,115.330421 C66.3576773,114.241001 64.7589987,112.642323 63.6695794,110.605286 C62.5801601,108.568249 62,106.54771 62,100.975718 L62,12.0242825 C62,6.45229038 62.5801601,4.43175139 63.6695794,2.39471435 C64.7589987,0.357677316 66.3576773,-1.24100127 68.3947144,-2.3304206 C70.4317514,-3.41983993 72.4522904,-4 78.0242825,-4 Z" id="Rectangle" fill="#FFD77B" mask="url(#mask-4)"></path>
                            </g>
                        </g>
                        <mask id="mask-6" fill="white">
                            <use xlink:href="#path-5"></use>
                        </mask>
                        <use id="Path-28" fill="#FFE7DA" xlink:href="#path-5"></use>
                        <circle id="Oval" fill="#FADCCC" mask="url(#mask-6)" cx="77" cy="196" r="31"></circle>
                        <path d="M58.5,94.5 L58.5,141.811004" id="Line" stroke="#F99401" stroke-width="5" stroke-linecap="round" stroke-linejoin="round" mask="url(#mask-6)"></path>
                    </g>
                    <path d="M12.5522623,142.42287 L12.5522623,142.42287 C19.4558217,142.42287 25.0522623,148.01931 25.0522623,154.92287 L25.0522623,189.92287 C25.0522623,196.826429 19.4558217,202.42287 12.5522623,202.42287 L12.5522623,202.42287 C5.64870294,202.42287 0.0522623151,196.826429 0.0522623151,189.92287 L0.0522623151,154.92287 C0.0522623151,148.01931 5.64870294,142.42287 12.5522623,142.42287 Z" id="Rectangle" stroke="url(#linearGradient-7)" stroke-width="5" fill="#FFE7DA"></path>
                    <path d="M36.5522623,132.42287 L36.5522623,132.42287 C43.4558217,132.42287 49.0522623,138.01931 49.0522623,144.92287 L49.0522623,199.92287 C49.0522623,206.826429 43.4558217,212.42287 36.5522623,212.42287 L36.5522623,212.42287 C29.6487029,212.42287 24.0522623,206.826429 24.0522623,199.92287 L24.0522623,144.92287 C24.0522623,138.01931 29.6487029,132.42287 36.5522623,132.42287 Z" id="Rectangle-Copy-19" stroke="url(#linearGradient-8)" stroke-width="5" fill="#FFE7DA"></path>
                    <g id="Rectangle-Copy-21" transform="translate(24.302119, 113.611953)"></g>
                    <path d="M42.2498562,174.619294 L42.2498562,173.513024 L42.2498562,126.000087 C42.2498562,119.096527 47.8462969,113.500087 54.7498562,113.500087 C61.6534156,113.500087 67.2498562,119.096527 67.2498562,126.000087 L67.2498562,168.692198 L67.2498562,174.248174" id="Shape" stroke="url(#linearGradient-9)" stroke-width="5" fill="#FFE7DA" stroke-linecap="round" transform="translate(54.749856, 144.059690) rotate(-45.000000) translate(-54.749856, -144.059690) "></path>
                </g>
            </g>
        </g>
    </g>
</svg>