<?xml version="1.0" encoding="UTF-8"?>
<svg width="374px" height="438px" viewBox="0 0 374 438" version="1.1" xmlns="http://www.w3.org/2000/svg" xmlns:xlink="http://www.w3.org/1999/xlink">
    <!-- Generator: Sketch 54.1 (76490) - https://sketchapp.com -->
    <title>world</title>
    <desc>Created with Sketch.</desc>
    <defs>
        <path d="M198,14.4337567 L297.822395,72.0662433 C313.292449,80.997883 322.822395,97.504234 322.822395,115.367513 L322.822395,230.632487 C322.822395,248.495766 313.292449,265.002117 297.822395,273.933757 L198,331.566243 C182.529946,340.497883 163.470054,340.497883 148,331.566243 L48.1776051,273.933757 C32.7075513,265.002117 23.1776051,248.495766 23.1776051,230.632487 L23.1776051,115.367513 C23.1776051,97.504234 32.7075513,80.997883 48.1776051,72.0662433 L148,14.4337567 C163.470054,5.50211698 182.529946,5.50211698 198,14.4337567 Z" id="path-1"></path>
        <ellipse id="path-3" cx="100" cy="99.5" rx="100" ry="99.5"></ellipse>
    </defs>
    <g id="Page-1" stroke="none" stroke-width="1" fill="none" fill-rule="evenodd">
        <g id="icon" transform="translate(-710.000000, -2548.000000)">
            <g id="world" transform="translate(682.000000, 2541.000000)">
                <g id="Group-10-Copy-5">
                    <path d="M240,36.4337567 L376.195462,115.066243 C391.665516,123.997883 401.195462,140.504234 401.195462,158.367513 L401.195462,315.632487 C401.195462,333.495766 391.665516,350.002117 376.195462,358.933757 L240,437.566243 C224.529946,446.497883 205.470054,446.497883 190,437.566243 L53.8045382,358.933757 C38.3344843,350.002117 28.8045382,333.495766 28.8045382,315.632487 L28.8045382,158.367513 C28.8045382,140.504234 38.3344843,123.997883 53.8045382,115.066243 L190,36.4337567 C205.470054,27.502117 224.529946,27.502117 240,36.4337567 Z" id="Polygon-Copy-2" fill="#F99401"></path>
                    <g id="Polygon-2" fill="#FFCF61">
                        <path d="M240,14.4337567 L376.195462,93.0662433 C391.665516,101.997883 401.195462,118.504234 401.195462,136.367513 L401.195462,293.632487 C401.195462,311.495766 391.665516,328.002117 376.195462,336.933757 L240,415.566243 C224.529946,424.497883 205.470054,424.497883 190,415.566243 L53.8045382,336.933757 C38.3344843,328.002117 28.8045382,311.495766 28.8045382,293.632487 L28.8045382,136.367513 C28.8045382,118.504234 38.3344843,101.997883 53.8045382,93.0662433 L190,14.4337567 C205.470054,5.50211698 224.529946,5.50211698 240,14.4337567 Z" id="Polygon"></path>
                    </g>
                    <g id="Group-11" transform="translate(42.000000, 42.000000)">
                        <mask id="mask-2" fill="white">
                            <use xlink:href="#path-1"></use>
                        </mask>
                        <use id="Polygon-Copy" fill="#EE8E03" xlink:href="#path-1"></use>
                        <path d="M198,36.4337567 L297.822395,94.0662433 C313.292449,102.997883 322.822395,119.504234 322.822395,137.367513 L322.822395,252.632487 C322.822395,270.495766 313.292449,287.002117 297.822395,295.933757 L198,353.566243 C182.529946,362.497883 163.470054,362.497883 148,353.566243 L48.1776051,295.933757 C32.7075513,287.002117 23.1776051,270.495766 23.1776051,252.632487 L23.1776051,137.367513 C23.1776051,119.504234 32.7075513,102.997883 48.1776051,94.0662433 L148,36.4337567 C163.470054,27.502117 182.529946,27.502117 198,36.4337567 Z" id="Polygon-Copy-3" fill="#F99401" mask="url(#mask-2)"></path>
                    </g>
                </g>
                <g id="Oval-2" transform="translate(115.000000, 116.000000)">
                    <mask id="mask-4" fill="white">
                        <use xlink:href="#path-3"></use>
                    </mask>
                    <use id="Oval" fill="#07CAFF" xlink:href="#path-3"></use>
                    <path d="M129.16106,66.9897853 L129.16106,66.9897853 C127.672068,70.3299312 124.837051,72.8824046 121.359477,74.0138449 L114.007178,76.4059406 C108.262124,78.2751138 104.877578,84.2033785 106.188487,90.1009187 L107.089628,94.1549888 C108.009665,98.2940696 107.696371,102.612046 106.188487,106.574967 L106.188487,106.574967 C104.899951,109.961411 106.530991,113.759361 109.873973,115.156786 L121.938487,120.199967 C133.21723,124.914682 141.380418,134.970765 143.67585,146.977828 L144.094951,149.170083 C144.677195,152.215716 147.61817,154.212687 150.663803,153.630443 C152.595303,153.261192 154.192838,151.908315 154.875191,150.064018 L157.931591,141.80304 C160.522888,134.799161 164.683107,128.481419 170.09348,123.333895 L171.261018,122.223078 C175.938066,117.773253 179.916427,112.642746 183.061578,107.005039 L183.061578,107.005039 C185.448793,102.725938 183.915117,97.3218212 179.636016,94.9346064 C179.395553,94.8004575 179.148976,94.6775757 178.897084,94.56636 L177.82221,94.091779 C171.811668,91.4379903 166.842352,86.8786607 163.6821,81.1182776 L161.713194,77.5294348 C159.826173,74.0898471 156.896004,71.3380547 153.344826,69.670497 L153.344826,69.670497 C149.705192,67.9614021 145.964106,66.4772709 142.142661,65.2264714 L136.959491,63.5299649 C133.8575,62.5146503 130.490006,64.0086591 129.16106,66.9897853 Z" id="Path-5" fill="#B0E100" mask="url(#mask-4)"></path>
                    <circle id="Oval" fill="#0D6095" mask="url(#mask-4)" cx="68.5" cy="100.5" r="8.5"></circle>
                    <circle id="Oval-Copy-2" fill="#0D6095" mask="url(#mask-4)" cx="131.5" cy="98.5" r="8.5"></circle>
                    <path d="M92.5,127.75 C92.5,132.168278 96.081722,135.75 100.5,135.75 L100.5,135.75 C104.918278,135.75 108.5,132.168278 108.5,127.75" id="Path" stroke="#0D6095" stroke-width="5" stroke-linecap="round" stroke-linejoin="round" mask="url(#mask-4)"></path>
                    <path d="M28.8943186,31 L33.7793934,31 C36.801288,31 39.2510177,33.4497296 39.2510177,36.4716243 L39.2510177,36.4716243 C39.2510177,39.493519 41.7007473,41.9432486 44.722642,41.9432486 L59.3054633,41.9432486 C62.529536,41.9432486 65.1431633,44.5568759 65.1431633,47.7809486 C65.1431633,49.7772738 64.1230358,51.6351737 62.4385995,52.7066159 L42.795544,65.2012413 C40.433568,66.7036555 38.1357196,68.3045859 35.9080706,69.9998023 L30.8735988,73.83098 C25.5950435,77.8479026 22.49618,84.1002105 22.49618,90.7333706 L22.49618,91.7074906 C22.49618,98.0595312 17.3468337,103.208878 10.9947931,103.208878 L7.38508979,103.208878 C-0.960534889,103.208878 -7.72600042,96.443412 -7.72600042,88.0977873 L-7.72600042,70.2551877 C-7.72600042,59.3753688 -2.91974679,49.0512518 5.40580952,42.0472835 L10.6123698,37.6672058 C15.73099,33.3611088 22.2053168,31 28.8943186,31 Z" id="Path-4" fill="#B0E100" mask="url(#mask-4)"></path>
                    <path d="M190.551722,78.160065 L189.635055,78.160065 C183.148714,78.160065 176.95719,75.4507753 172.555628,70.6864424 L172.555628,70.6864424 C167.996593,65.7516582 162.516645,61.7559197 156.424208,58.9241178 L147.708043,54.8727913 C142.630631,52.5127791 137.099087,51.2900456 131.5,51.2900456 L108.441365,51.2900456 C105.762201,51.2900456 103.590309,49.118154 103.590309,46.4389899 C103.590309,45.580846 103.817948,44.7380597 104.25,43.996614 L104.84982,42.9672616 C107.109959,39.0886337 111.260904,36.7031824 115.75,36.7031824 L115.75,36.7031824 C120.479691,36.7031824 125.105924,35.3186103 129.057968,32.720278 L136.120005,28.0772323 C141.797029,24.3447856 148.442509,22.3558785 155.236606,22.3558785 L155.236606,22.3558785 C161.944938,22.3558785 168.41963,24.819715 173.430897,29.2794145 L204.503064,56.9316042 C208.477327,60.4684376 209.035491,66.4781873 205.780565,70.6864424 L205.780565,70.6864424 C202.13455,75.4003309 196.511098,78.160065 190.551722,78.160065 Z" id="Path-6" fill="#B0E100" mask="url(#mask-4)"></path>
                    <path d="M-1.29228963,114.515336 L-0.949099825,114.334205 C1.85865163,112.852312 5.11902439,112.473795 8.19160307,113.273003 L8.19160307,113.273003 C11.3372378,114.091214 14.6242924,114.207847 17.8200077,113.614644 L19.6605018,113.273003 C23.716117,112.520182 27.8279772,114.270986 30.096019,117.71638 L30.2105309,117.890336 C31.3586487,119.634448 30.8755,121.979063 29.1313881,123.127181 C28.5141883,123.533472 27.7914607,123.75 27.0525369,123.75 L21.3767796,123.75 C18.0526937,123.75 15.3579897,126.444704 15.3579897,129.76879 C15.3579897,130.429033 15.4666247,131.084777 15.6795417,131.709746 L15.6795417,131.709746 C16.4294986,133.911075 15.2529293,136.303565 13.0516006,137.053522 C12.1908196,137.346776 11.2582338,137.353493 10.3933181,137.072667 L1.01452513,134.027512 C-3.16795133,132.669524 -6,128.772413 -6,124.375 L-6,122.323166 C-6,119.048947 -4.18794846,116.043624 -1.29228963,114.515336 Z" id="Path-8" fill="#B0E100" mask="url(#mask-4)"></path>
                    <path d="M35.3562298,137.665164 L35.3562298,137.665164 C35.3562298,140.706997 34.4552487,143.680677 32.7669726,146.210987 L32.6781149,146.344163 C31.5199657,148.079943 31.988228,150.425936 33.724008,151.584085 C33.9780511,151.753588 34.2517083,151.891664 34.5389895,151.995292 L35.8599771,152.471796 C39.7292214,153.867502 43.2879477,156.006887 46.3355437,158.769351 L49.1647912,161.333894 C54.110787,165.817144 58.5112755,170.867584 62.2752362,176.38075 L71.6314542,190.085033 C73.0205174,192.119628 74.9498729,193.726151 77.202379,194.723793 L77.202379,194.723793 C78.9009655,195.476102 80.8878092,194.708993 81.6401185,193.010406 C81.6916488,192.89406 81.7365355,192.774883 81.7745624,192.653451 L86.3596834,178.01162 C87.1724616,175.416147 86.3057531,172.588036 84.1782913,170.893634 L84.1782913,170.893634 C81.9273735,169.100907 80.5248186,166.451681 80.3075251,163.582311 L79.0635594,147.15569 C78.5875212,140.869584 74.6400887,135.375915 68.8342533,132.919493 L65.9491009,131.698798 C61.6071897,129.861755 57.6422265,127.237999 54.254015,123.959746 L52.1531228,121.927035 C50.3519141,120.184282 47.6292762,119.809202 45.4239319,121 L45.4239319,121 C42.995027,122.311512 40.9419722,124.222526 39.4599826,126.551335 L37.8608669,129.064196 C36.2250818,131.63468 35.3562298,134.618333 35.3562298,137.665164 Z" id="Path-9" fill="#B0E100" mask="url(#mask-4)"></path>
                    <path d="M55.8946641,24.3803591 L55.8946641,24.3803591 C58.6121053,25.7204216 61.0841791,27.5090296 63.2069574,29.6709885 L64.25,30.7332826 C66.1594979,32.6780244 69.2839765,32.7065953 71.2287183,30.7970974 C71.4694753,30.5607035 71.6853536,30.3002413 71.872965,30.0197988 L72.75,28.708802 C75.4825859,24.6241175 79.6535655,21.7186626 84.4321526,20.571153 L85.4667795,20.3227022 C88.9740582,19.4804792 91.1345127,15.9545114 90.2922898,12.4472327 C90.2404619,12.2314053 90.1776651,12.0183604 90.1041438,11.8089273 L90.1041438,11.8089273 C89.0440564,8.7891573 85.7366785,7.2005207 82.7169086,8.26060809 C82.3157094,8.40144867 81.9312301,8.58601812 81.5704148,8.81098287 L79.9264759,9.83596256 C74.7512367,13.062673 69.2701501,15.7706998 63.5629245,17.9206617 L56.0728409,20.7422417 C55.0468643,21.1287361 54.5284616,22.2737701 54.9149559,23.2997467 C55.0925652,23.7712231 55.4427992,24.1575291 55.8946641,24.3803591 Z" id="Path-10" fill="#B0E100" mask="url(#mask-4)"></path>
                </g>
            </g>
        </g>
    </g>
</svg>